<svg width="1400" height="1400" xmlns="http://www.w3.org/2000/svg" version="1.1">
 <g>
  <title>Layer 1</title>
  <ellipse ry="700" rx="700" id="svg_47" cy="700" cx="700" fill="#398378"/>
  <ellipse ry="600" rx="600" id="svg_516" cy="700" cx="700" fill="#06a58b"/>
  <g y="-38.60911" x="21.77958" id="svg_3" transform="matrix(0.75 0 0 0.75 249.091 282.754)">
   <svg y="-80.95688" x="-282.23197" id="svg_24" width="2000" height="1247" preserveAspectRatio="xMidYMid meet" data-background-color="#398378" viewBox="0 0 396 247" xmlns:xlink="http://www.w3.org/1999/xlink" xmlns="http://www.w3.org/2000/svg">

    <g transform="matrix(1,0,0,1,0.2400000000000091,-0.09999999999999432)" id="svg_1">
     <svg id="svg_25" width="395.52" height="247.2" viewBox="0 0 395.52 247.2">
      <svg id="svg_26"/>
      <svg id="svg_27" width="395.52" height="247.2" viewBox="0 0 395.52 247.2">
       <g id="svg_10" transform="matrix(1,0,0,1,75.54432,74.2929747175901)">
        <svg id="svg_28" width="244.43136" height="98.61405" viewBox="0 0 244.43135999999998 98.61405056481979">
         <svg id="svg_29" width="244.43136" height="98.61405" viewBox="0 0 244.43135999999998 98.61405056481979">
          <svg id="svg_30" width="244.43136" height="98.61405" viewBox="0 0 244.43135999999998 98.61405056481979">
           <svg id="svg_31" width="244.43136" height="98.61405" viewBox="0 0 244.43135999999998 98.61405056481979">
            <svg id="svg_32" width="244.43136" height="98.61405" viewBox="0 0 244.43135999999998 98.61405056481979">
             <svg id="svg_33" width="244.43136" height="98.61405" viewBox="0 0 244.43135999999998 98.61405056481979">
              <svg id="svg_34" data-palette-color="#ffffff" height="98.61405" viewBox="3.1 -37.5 92.94000000000001 37.5" width="244.43136">
               <path id="svg_21" data-fill-palette-color="primary" class="undefined-text-0" fill="#ffffff" d="m18.05,0l-11.35,0q-1.5,0 -2.55,-1.05q-1.05,-1.05 -1.05,-2.55l0,0l0,-31.4l4.65,0l0,28.6q0,0.7 0.53,1.22q0.52,0.53 1.27,0.53l0,0l5.65,0q0.75,0 1.28,-0.53q0.52,-0.52 0.52,-1.22l0,0l0,-28.6l4.65,0l0,31.4q0,1.5 -1.05,2.55q-1.05,1.05 -2.55,1.05l0,0zm14.1,0l-4.7,0l0,-25l10.45,0q1.45,0 2.55,1.05q1.1,1.05 1.1,2.55l0,0l0,21.4l-4.7,0l0,-18.5q0,-0.8 -0.55,-1.3q-0.55,-0.5 -1.25,-0.5l0,0l-2.9,0l0,20.3zm17.8,-32.8l-4.7,1.1l0,-4.7l4.7,-1.1l0,4.7zm0.1,32.8l-4.7,0l0,-23.9l4.7,-1.1l0,25zm9.74,0l-4.65,0l0,-35l4.65,0l6.95,21.35l6.95,-21.35l4.65,0l0,35l-4.65,0l0,-20.8l-4.65,14.25l-4.6,0l-4.65,-14.25l0,20.8zm36.25,0l-10.45,0q-1.5,0 -2.57,-1.05q-1.08,-1.05 -1.08,-2.6l0,0l0,-7.55q0,-1.5 1.08,-2.58q1.07,-1.07 2.57,-1.07l0,0l3.9,0q0.8,0 1.33,-0.53q0.52,-0.52 0.52,-1.27l0,0l0,-1.85q0,-0.75 -0.52,-1.28q-0.53,-0.52 -1.33,-0.52l0,0l-5.4,0l1.05,-4.7l7.25,0q1.5,0 2.58,1.07q1.07,1.08 1.07,2.58l0,0l0,21.35zm-7.6,-4.7l0,0l2.9,0l0,-5.45l-2.9,0q-0.75,0 -1.27,0.52q-0.53,0.53 -0.53,1.28l0,0l0,1.85q0,0.75 0.53,1.27q0.52,0.53 1.27,0.53z"/>
              </svg>
             </svg>
            </svg>
           </svg>
          </svg>
         </svg>
        </svg>
       </g>
       <g id="svg_35">
        <path id="svg_36" data-fill-palette-color="tertiary" stroke="transparent" fill="#ffffff" d="m244.431,196.187a122.216,122.216 0 1 1 0,-145.174l-8.893,0a113.323,113.323 0 1 0 0,145.174l8.893,0"/>
       </g>
      </svg>
     </svg>
     <rect id="svg_37" visibility="hidden" fill="none" height="247.2" width="395.52"/>
    </g>
   </svg>
  </g>
 </g>
</svg>